<?xml version="1.0" encoding="UTF-8"?>
<!-- Do not edit this file with editors other than draw.io -->
<!DOCTYPE svg PUBLIC "-//W3C//DTD SVG 1.1//EN" "http://www.w3.org/Graphics/SVG/1.1/DTD/svg11.dtd">
<svg xmlns="http://www.w3.org/2000/svg" xmlns:xlink="http://www.w3.org/1999/xlink" version="1.1" width="124px" height="423px" viewBox="-0.5 -0.5 124 423" class="ge-export-svg-dark" content="&lt;mxfile host=&quot;app.diagrams.net&quot; modified=&quot;2024-07-21T09:57:14.874Z&quot; agent=&quot;Mozilla/5.0 (Linux; Android 10; K) AppleWebKit/537.36 (KHTML, like Gecko) Chrome/126.0.0.0 Mobile Safari/537.36&quot; etag=&quot;DJ7X3EqWwaQqxkWY9HPr&quot; version=&quot;24.7.1&quot; scale=&quot;1&quot; border=&quot;0&quot;&gt;&#10;  &lt;diagram name=&quot;Page-1&quot; id=&quot;UERUusDIKbt0KnXjvOUd&quot;&gt;&#10;    &lt;mxGraphModel dx=&quot;91&quot; dy=&quot;899&quot; grid=&quot;0&quot; gridSize=&quot;10&quot; guides=&quot;1&quot; tooltips=&quot;1&quot; connect=&quot;1&quot; arrows=&quot;1&quot; fold=&quot;1&quot; page=&quot;0&quot; pageScale=&quot;1&quot; pageWidth=&quot;850&quot; pageHeight=&quot;1100&quot; math=&quot;0&quot; shadow=&quot;0&quot;&gt;&#10;      &lt;root&gt;&#10;        &lt;mxCell id=&quot;0&quot; /&gt;&#10;        &lt;mxCell id=&quot;1&quot; parent=&quot;0&quot; /&gt;&#10;        &lt;mxCell id=&quot;S12MlvwbeLvGfIT8W-6I-6&quot; style=&quot;edgeStyle=none;curved=1;rounded=1;orthogonalLoop=1;jettySize=auto;html=1;fontSize=12;startSize=8;endSize=8;flowAnimation=1;&quot; edge=&quot;1&quot; parent=&quot;1&quot; source=&quot;S12MlvwbeLvGfIT8W-6I-1&quot; target=&quot;S12MlvwbeLvGfIT8W-6I-4&quot;&gt;&#10;          &lt;mxGeometry relative=&quot;1&quot; as=&quot;geometry&quot;&gt;&#10;            &lt;Array as=&quot;points&quot;&gt;&#10;              &lt;mxPoint x=&quot;227&quot; y=&quot;274&quot; /&gt;&#10;            &lt;/Array&gt;&#10;          &lt;/mxGeometry&gt;&#10;        &lt;/mxCell&gt;&#10;        &lt;mxCell id=&quot;S12MlvwbeLvGfIT8W-6I-1&quot; value=&quot;&quot; style=&quot;rounded=1;whiteSpace=wrap;html=1;sketch=1;curveFitting=1;jiggle=2;fillColor=#e1d5e7;strokeColor=#9673a6;&quot; vertex=&quot;1&quot; parent=&quot;1&quot;&gt;&#10;          &lt;mxGeometry x=&quot;230&quot; y=&quot;170&quot; width=&quot;120&quot; height=&quot;60&quot; as=&quot;geometry&quot; /&gt;&#10;        &lt;/mxCell&gt;&#10;        &lt;mxCell id=&quot;S12MlvwbeLvGfIT8W-6I-3&quot; style=&quot;edgeStyle=elbowEdgeStyle;rounded=1;orthogonalLoop=1;jettySize=auto;html=1;fontSize=12;startSize=8;endSize=8;flowAnimation=1;&quot; edge=&quot;1&quot; parent=&quot;1&quot; source=&quot;S12MlvwbeLvGfIT8W-6I-2&quot; target=&quot;S12MlvwbeLvGfIT8W-6I-1&quot;&gt;&#10;          &lt;mxGeometry relative=&quot;1&quot; as=&quot;geometry&quot;&gt;&#10;            &lt;Array as=&quot;points&quot;&gt;&#10;              &lt;mxPoint x=&quot;286&quot; y=&quot;131&quot; /&gt;&#10;            &lt;/Array&gt;&#10;          &lt;/mxGeometry&gt;&#10;        &lt;/mxCell&gt;&#10;        &lt;mxCell id=&quot;S12MlvwbeLvGfIT8W-6I-2&quot; value=&quot;&quot; style=&quot;rounded=1;whiteSpace=wrap;html=1;sketch=1;curveFitting=1;jiggle=2;fillColor=#f8cecc;strokeColor=#b85450;&quot; vertex=&quot;1&quot; parent=&quot;1&quot;&gt;&#10;          &lt;mxGeometry x=&quot;230&quot; y=&quot;-12&quot; width=&quot;120&quot; height=&quot;60&quot; as=&quot;geometry&quot; /&gt;&#10;        &lt;/mxCell&gt;&#10;        &lt;mxCell id=&quot;S12MlvwbeLvGfIT8W-6I-5&quot; style=&quot;edgeStyle=none;curved=1;rounded=1;orthogonalLoop=1;jettySize=auto;html=1;fontSize=12;startSize=8;endSize=8;flowAnimation=1;&quot; edge=&quot;1&quot; parent=&quot;1&quot; source=&quot;S12MlvwbeLvGfIT8W-6I-4&quot; target=&quot;S12MlvwbeLvGfIT8W-6I-1&quot;&gt;&#10;          &lt;mxGeometry relative=&quot;1&quot; as=&quot;geometry&quot;&gt;&#10;            &lt;Array as=&quot;points&quot;&gt;&#10;              &lt;mxPoint x=&quot;359&quot; y=&quot;311&quot; /&gt;&#10;            &lt;/Array&gt;&#10;          &lt;/mxGeometry&gt;&#10;        &lt;/mxCell&gt;&#10;        &lt;mxCell id=&quot;S12MlvwbeLvGfIT8W-6I-4&quot; value=&quot;&quot; style=&quot;ellipse;shape=cloud;whiteSpace=wrap;html=1;rounded=1;sketch=1;curveFitting=1;jiggle=2;&quot; vertex=&quot;1&quot; parent=&quot;1&quot;&gt;&#10;          &lt;mxGeometry x=&quot;232&quot; y=&quot;330&quot; width=&quot;120&quot; height=&quot;80&quot; as=&quot;geometry&quot; /&gt;&#10;        &lt;/mxCell&gt;&#10;      &lt;/root&gt;&#10;    &lt;/mxGraphModel&gt;&#10;  &lt;/diagram&gt;&#10;&lt;/mxfile&gt;&#10;" style="background-color: rgb(0, 0, 0);"><defs><style>@keyframes ge-flow-animation-raKVKAcZ0OFEutmiMURv {&#xa;  to {&#xa;    stroke-dashoffset: 0;&#xa;  }&#xa;}</style><style type="text/css">svg.ge-export-svg-dark:not(mjx-container &gt; svg) { filter: invert(100%) hue-rotate(180deg); }&#xa;svg.ge-export-svg-dark foreignObject img,&#xa;svg.ge-export-svg-dark image:not(svg.ge-export-svg-dark switch image),&#xa;svg.ge-export-svg-dark svg:not(mjx-container &gt; svg)&#xa;{ filter: invert(100%) hue-rotate(180deg) }</style></defs><rect fill="#ffffff" width="100%" height="100%" x="0" y="0"/><g><g data-cell-id="0"><g data-cell-id="1"><g data-cell-id="S12MlvwbeLvGfIT8W-6I-6"><g><path d="M 34.46 242 Q -3 286 32.82 339.05" fill="none" stroke="rgb(0, 0, 0)" stroke-miterlimit="10" pointer-events="stroke" stroke-dasharray="8" style="animation: 500ms linear 0s infinite normal none running ge-flow-animation-raKVKAcZ0OFEutmiMURv; stroke-dashoffset: 16;"/><path d="M 36.6 344.64 L 27.83 339.7 L 32.82 339.05 L 35.29 334.67 Z" fill="rgb(0, 0, 0)" stroke="rgb(0, 0, 0)" stroke-miterlimit="10" pointer-events="all"/></g></g><g data-cell-id="S12MlvwbeLvGfIT8W-6I-1"><g><rect x="0" y="182" width="120" height="60" rx="9" ry="9" fill="none" stroke="none" pointer-events="all"/><path d="M 2.52 183.94 C 2.52 183.94 2.52 183.94 2.52 183.94 M 2.52 183.94 C 2.52 183.94 2.52 183.94 2.52 183.94 M 0.95 191.85 C 1.47 187.3 2.45 185.87 9.48 182.04 M 0.95 191.85 C 3.18 188.21 4.28 187.87 9.48 182.04 M 0.68 198.24 C 6.26 191.68 4.82 188.27 14.46 182.4 M 0.68 198.24 C 5.23 193.95 7.89 186.63 14.46 182.4 M 1.08 203.89 C 3.62 201.55 11.55 190.08 20.11 182 M 1.08 203.89 C 4.74 198.34 10.71 193.11 20.11 182 M 0.82 210.29 C 13.64 198.99 18.87 190.23 25.09 182.36 M 0.82 210.29 C 7.54 201.69 18.87 188.86 25.09 182.36 M 1.21 215.93 C 13 202.51 17.8 193.75 30.08 182.72 M 1.21 215.93 C 14.61 202.01 25.24 191.29 30.08 182.72 M 0.95 222.33 C 16.73 206.37 25.37 197.61 35.72 182.33 M 0.95 222.33 C 15.32 207.18 30.31 188.76 35.72 182.33 M 0.69 228.72 C 10.2 218.13 26.12 198.75 40.71 182.69 M 0.69 228.72 C 10.07 216.74 20.15 204.59 40.71 182.69 M 1.08 234.37 C 18.3 223.8 29.05 207.88 46.35 182.29 M 1.08 234.37 C 12.52 219.32 26.83 204.67 46.35 182.29 M 2.79 238.5 C 14.54 226.4 21.34 214.92 51.34 182.65 M 2.79 238.5 C 17.73 219.28 35.32 203.28 51.34 182.65 M 5.15 241.88 C 21.81 215.03 42.1 196.18 56.98 182.26 M 5.15 241.88 C 25.13 221.75 45.84 196.28 56.98 182.26 M 10.8 241.48 C 28.09 222.61 40.75 206.56 61.97 182.62 M 10.8 241.48 C 26.49 222.42 41.45 206.08 61.97 182.62 M 15.78 241.85 C 31.96 226.54 38.98 215.72 67.61 182.22 M 15.78 241.85 C 31.67 223.82 49 205.65 67.61 182.22 M 21.43 241.45 C 39.3 225.95 52.29 212.82 72.6 182.58 M 21.43 241.45 C 37.43 222.44 53.01 207.49 72.6 182.58 M 26.41 241.81 C 40.04 232.77 47.77 215.09 77.59 182.94 M 26.41 241.81 C 45.3 223.89 59.21 204.18 77.59 182.94 M 31.4 242.17 C 42.26 231.4 57.41 209.49 83.23 182.55 M 31.4 242.17 C 46.43 226.38 61.05 209.39 83.23 182.55 M 37.04 241.78 C 50.24 224.22 71.11 207.05 88.22 182.91 M 37.04 241.78 C 53.26 223.75 69.04 206.97 88.22 182.91 M 42.03 242.14 C 58.92 218.87 79.5 195.84 93.86 182.51 M 42.03 242.14 C 52.99 225.32 65.16 211.55 93.86 182.51 M 47.67 241.74 C 66.4 214.15 85.2 191.74 98.85 182.87 M 47.67 241.74 C 57.55 231.04 70.14 216.94 98.85 182.87 M 52.66 242.1 C 69.41 220.35 88.04 197.98 104.49 182.48 M 52.66 242.1 C 74.35 218.27 92.56 199.04 104.49 182.48 M 58.3 241.71 C 78.75 221.69 100.56 197.67 109.48 182.84 M 58.3 241.71 C 75.18 223.12 93.19 201.62 109.48 182.84 M 63.29 242.07 C 78.53 222.3 92.77 210.28 115.12 182.45 M 63.29 242.07 C 73.61 228.67 85.15 213.38 115.12 182.45 M 68.93 241.67 C 86.93 221.55 107.11 198.38 118.14 185.07 M 68.93 241.67 C 86.33 220.8 105.48 197.52 118.14 185.07 M 73.92 242.03 C 90.37 221.75 100.98 207.39 119.85 189.2 M 73.92 242.03 C 89.91 219.68 107.63 200.94 119.85 189.2 M 78.91 242.39 C 86.6 235.24 95.39 219.01 122.21 192.58 M 78.91 242.39 C 97.22 225.27 112.37 208.47 122.21 192.58 M 84.55 242 C 100.26 229.31 107.22 214.98 121.95 198.98 M 84.55 242 C 96.46 230.88 106.05 217.99 121.95 198.98 M 89.54 242.36 C 99.91 231.01 110.98 223.49 121.69 205.38 M 89.54 242.36 C 95.53 235.67 105.76 226.48 121.69 205.38 M 95.18 241.96 C 103.71 233.95 114.24 219.61 122.08 211.02 M 95.18 241.96 C 103.56 231.63 113.67 220.98 122.08 211.02 M 100.17 242.32 C 103.53 238.23 110.14 228.59 121.82 217.42 M 100.17 242.32 C 106.07 235.16 111.28 229.31 121.82 217.42 M 105.81 241.93 C 112.45 233.33 114.57 228.21 121.56 223.82 M 105.81 241.93 C 112.56 236.06 115.59 231.25 121.56 223.82 M 110.8 242.29 C 116.04 239.9 117.17 233.97 121.3 230.21 M 110.8 242.29 C 112.61 240.09 116.32 236.27 121.3 230.21" fill="none" stroke="#e1d5e7" stroke-width="0.5" stroke-linejoin="round" stroke-linecap="round" stroke-miterlimit="10" pointer-events="all"/><path d="M 9 182 C 33.3 180.09 59.03 182.87 111 182 M 9 182 C 40.07 185.17 69.46 183.3 111 182 M 111 182 C 116.35 184.72 120.87 188.14 120 191 M 111 182 C 121.09 182.63 115.62 181.75 120 191 M 120 191 C 120.87 198.29 117.31 208.75 120 233 M 120 191 C 119.69 206.27 121.53 219.39 120 233 M 120 233 C 116.63 238.29 114.6 240.32 111 242 M 120 233 C 116.66 240.99 117.81 240.71 111 242 M 111 242 C 77.27 245.28 42.03 244.77 9 242 M 111 242 C 82.55 243.78 58.93 244.97 9 242 M 9 242 C 5.89 242.57 0.8 238.56 0 233 M 9 242 C 1.89 241.06 -1.92 243.14 0 233 M 0 233 C -0.63 222.25 1.54 212.26 0 191 M 0 233 C 1.04 216.39 -1.41 199.83 0 191 M 0 191 C 1.86 185.19 4.51 183.59 9 182 M 0 191 C -2.48 185.77 4.28 181.96 9 182" fill="none" stroke="#9673a6" stroke-linejoin="round" stroke-linecap="round" stroke-miterlimit="10" pointer-events="all"/></g></g><g data-cell-id="S12MlvwbeLvGfIT8W-6I-3"><g><path d="M 56 60 L 56 133 Q 56 143 56 153 L 56 174.13" fill="none" stroke="rgb(0, 0, 0)" stroke-miterlimit="10" pointer-events="stroke" stroke-dasharray="8" style="animation: 500ms linear 0s infinite normal none running ge-flow-animation-raKVKAcZ0OFEutmiMURv; stroke-dashoffset: 16;"/><path d="M 56 180.88 L 51.5 171.88 L 56 174.13 L 60.5 171.88 Z" fill="rgb(0, 0, 0)" stroke="rgb(0, 0, 0)" stroke-miterlimit="10" pointer-events="all"/></g></g><g data-cell-id="S12MlvwbeLvGfIT8W-6I-2"><g><rect x="0" y="0" width="120" height="60" rx="9" ry="9" fill="none" stroke="none" pointer-events="all"/><path d="M 2.29 2.21 C 2.29 2.21 2.29 2.21 2.29 2.21 M 2.29 2.21 C 2.29 2.21 2.29 2.21 2.29 2.21 M 0.06 10.87 C 3.03 4.68 8.55 3.46 9.24 0.3 M 0.06 10.87 C 2.59 7.06 8.58 2 9.24 0.3 M 0.45 16.51 C 5.02 10.88 7.94 7.56 14.88 -0.09 M 0.45 16.51 C 5.42 10.77 10.63 4.96 14.88 -0.09 M 0.19 22.91 C 6.36 11.62 15.1 11.4 19.87 0.27 M 0.19 22.91 C 6.17 12.76 14.05 3.52 19.87 0.27 M -0.07 29.31 C 6.44 21.15 9.75 11.35 24.86 0.63 M -0.07 29.31 C 7.6 19.35 15.45 13.6 24.86 0.63 M 0.32 34.95 C 7.87 25.43 13.34 13.71 30.5 0.24 M 0.32 34.95 C 6.66 25.13 14.1 16.86 30.5 0.24 M 0.06 41.35 C 6.76 33.05 18.55 22.58 35.49 0.6 M 0.06 41.35 C 12.62 26.79 26.98 12.14 35.49 0.6 M 0.46 46.99 C 10.77 35.12 27.93 17.17 41.13 0.2 M 0.46 46.99 C 11.46 37.46 19.91 24.39 41.13 0.2 M 0.85 52.64 C 12.15 32.2 32.79 15.76 46.12 0.56 M 0.85 52.64 C 14.5 40.86 25.86 24.07 46.12 0.56 M 2.56 56.77 C 14.37 44.79 25.41 25.81 51.76 0.17 M 2.56 56.77 C 14.68 42.17 29.96 27.29 51.76 0.17 M 5.58 59.39 C 16.79 44.17 29.49 33.44 56.75 0.53 M 5.58 59.39 C 17.66 43.22 31.42 28.05 56.75 0.53 M 10.56 59.75 C 25.33 41.46 41.97 26.09 61.74 0.89 M 10.56 59.75 C 27.03 40.72 41.55 21.34 61.74 0.89 M 16.21 59.36 C 37.84 42.86 51.68 19.4 67.38 0.49 M 16.21 59.36 C 32.31 45.9 42.89 28.43 67.38 0.49 M 21.19 59.72 C 30.66 43.97 45.74 39.22 72.37 0.85 M 21.19 59.72 C 38.42 39.93 60.08 15.12 72.37 0.85 M 26.18 60.08 C 40.21 36.74 63.02 15.18 78.01 0.46 M 26.18 60.08 C 42.62 40.55 59.97 21.79 78.01 0.46 M 31.82 59.69 C 51.35 36.59 68 18.24 83 0.82 M 31.82 59.69 C 44.7 42.92 59.52 27.78 83 0.82 M 36.81 60.05 C 56.43 34.96 72.43 18.7 88.64 0.42 M 36.81 60.05 C 55.74 36.93 78.27 14.85 88.64 0.42 M 42.45 59.65 C 57.63 46.4 71.51 31.07 93.63 0.78 M 42.45 59.65 C 62.35 35.68 79.87 16.09 93.63 0.78 M 47.44 60.01 C 66.22 44.23 82.08 20.91 99.27 0.39 M 47.44 60.01 C 63.01 40.81 81.32 19.32 99.27 0.39 M 53.08 59.62 C 69.92 35.54 85.84 17.97 104.26 0.75 M 53.08 59.62 C 67.6 40.2 85.39 25.66 104.26 0.75 M 58.07 59.98 C 71.24 45.04 85.68 23.43 109.24 1.11 M 58.07 59.98 C 70.23 44.79 86.62 31.88 109.24 1.11 M 63.06 60.34 C 78.31 36.18 95.42 16.64 114.89 0.71 M 63.06 60.34 C 77.14 46.19 90.82 31.83 114.89 0.71 M 68.7 59.94 C 85.55 42.29 105.05 12.72 118.56 2.58 M 68.7 59.94 C 82.47 45.62 98.19 26.79 118.56 2.58 M 73.69 60.3 C 95.93 40.34 108.86 20.92 119.61 7.47 M 73.69 60.3 C 87.47 44.09 99.87 30.63 119.61 7.47 M 79.33 59.91 C 94.15 42.15 102.53 34.2 120.66 12.36 M 79.33 59.91 C 93.32 43.88 109.16 26.74 120.66 12.36 M 84.32 60.27 C 90.79 54.48 99.21 39.72 120.4 18.76 M 84.32 60.27 C 98.37 44.03 111.94 29.82 120.4 18.76 M 89.96 59.87 C 96.54 49.68 111.7 38.59 120.14 25.16 M 89.96 59.87 C 100.06 45.81 111.82 32.6 120.14 25.16 M 94.95 60.23 C 104.5 50.84 112.35 35.77 120.53 30.8 M 94.95 60.23 C 105.69 47.9 116.37 35.45 120.53 30.8 M 100.59 59.84 C 108.57 53.12 114.72 46.5 120.27 37.2 M 100.59 59.84 C 108.05 53.54 113.94 44.71 120.27 37.2 M 105.58 60.2 C 109.79 57.57 118.73 48.11 120.01 43.6 M 105.58 60.2 C 111.3 56.11 114.27 49.41 120.01 43.6 M 111.22 59.8 C 117.1 55.71 118.95 54.13 119.75 49.99 M 111.22 59.8 C 112.06 57.1 115.89 54.94 119.75 49.99" fill="none" stroke="#f8cecc" stroke-width="0.5" stroke-linejoin="round" stroke-linecap="round" stroke-miterlimit="10" pointer-events="all"/><path d="M 9 0 C 31.02 -2.36 62.39 0.83 111 0 M 9 0 C 45.8 -1.64 85.69 -1.07 111 0 M 111 0 C 117.75 -0.22 118.63 5.39 120 9 M 111 0 C 116.88 -2.84 117.55 -1.39 120 9 M 120 9 C 118.72 17.52 122.28 26.68 120 51 M 120 9 C 120.97 21.19 120.31 37.33 120 51 M 120 51 C 121.82 57.09 119.56 58.88 111 60 M 120 51 C 117.88 54.51 115.08 55.73 111 60 M 111 60 C 73.78 58.83 36.89 58.36 9 60 M 111 60 C 82.53 61.13 53.22 61.04 9 60 M 9 60 C 6.11 64 -3.56 53.61 0 51 M 9 60 C 0.95 63.62 -2.2 56.73 0 51 M 0 51 C 2.16 40.04 0.29 23.91 0 9 M 0 51 C 2.6 38.85 2.58 28.86 0 9 M 0 9 C -1.27 3.18 5.41 2.98 9 0 M 0 9 C 0.88 4.22 1.7 -0.09 9 0" fill="none" stroke="#b85450" stroke-linejoin="round" stroke-linecap="round" stroke-miterlimit="10" pointer-events="all"/></g></g><g data-cell-id="S12MlvwbeLvGfIT8W-6I-5"><g><path d="M 98.46 350.23 Q 129 323 82.8 248.68" fill="none" stroke="rgb(0, 0, 0)" stroke-miterlimit="10" pointer-events="stroke" stroke-dasharray="8" style="animation: 500ms linear 0s infinite normal none running ge-flow-animation-raKVKAcZ0OFEutmiMURv; stroke-dashoffset: 16;"/><path d="M 79.24 242.95 L 87.81 248.22 L 82.8 248.68 L 80.17 252.97 Z" fill="rgb(0, 0, 0)" stroke="rgb(0, 0, 0)" stroke-miterlimit="10" pointer-events="all"/></g></g><g data-cell-id="S12MlvwbeLvGfIT8W-6I-4"><g><path d="M 32 362 C 8 362 2 382 21.2 386 C 2 394.8 23.6 414 39.2 406 C 50 422 86 422 98 406 C 122 406 122 390 107 382 C 122 366 98 350 77 358 C 62 346 38 346 32 362 Z" fill="none" stroke="none" pointer-events="all"/><path d="M 32 362 C 3.22 366.32 -1.36 382.14 21.2 386 C 3.27 392.57 22.22 413.16 39.2 406 C 53.61 418.45 80.56 416.71 98 406 C 118.9 407.1 120.8 392.84 107 382 C 123.19 367.1 98.66 350.23 77 358 C 56.68 342.85 36.05 348.6 32 362 C 32 362 32 362 32 362" fill="rgb(255, 255, 255)" stroke="none" pointer-events="all"/><path d="M 32 362 C 5.8 359.09 0.76 382.45 21.2 386 M 32 362 C 8.04 364.44 -2.58 382.83 21.2 386 M 21.2 386 C 4.99 390.94 22.45 411.74 39.2 406 M 21.2 386 C 0.73 395.51 27.7 416.18 39.2 406 M 39.2 406 C 52.15 422.9 86.59 421.48 98 406 M 39.2 406 C 51.41 424.54 84.27 422.75 98 406 M 98 406 C 120.76 403.63 121.97 389.45 107 382 M 98 406 C 126.02 406.17 124.09 387.43 107 382 M 107 382 C 120.31 368.59 100.97 347.4 77 358 M 107 382 C 117.63 367.95 93.98 350 77 358 M 77 358 C 62.28 344.06 39.58 345.11 32 362 M 77 358 C 66.39 341.56 37.46 341.54 32 362 M 32 362 C 32 362 32 362 32 362 M 32 362 C 32 362 32 362 32 362" fill="none" stroke="rgb(0, 0, 0)" stroke-linejoin="round" stroke-linecap="round" stroke-miterlimit="10" pointer-events="all"/></g></g></g></g></g></svg>